<svg width="200" height="150" viewBox="0 0 163 108" fill="none" xmlns="http://www.w3.org/2000/svg">
<path d="M91.416 61.94C91.416 80.1323 158.572 37.54 136.404 37.54C116.844 37.54 21 78.41 21 61.94C21 43.7477 36.7631 29 56.208 29C75.6529 29 91.416 43.7477 91.416 61.94Z" fill="#EBFF00"/>
<path d="M55.206 33.092H60.8862V51.88H55.206V33.092ZM47.4603 51.88H41.78V33.092H47.4603V51.88ZM55.6076 44.5527H47.0586V40.151H55.6076V44.5527ZM72.7821 52.1216C70.9461 52.1216 69.3395 51.7995 67.9625 51.1554C66.6047 50.4933 65.5432 49.5986 64.7782 48.4714C64.0323 47.3262 63.6593 46.0289 63.6593 44.5796C63.6593 43.1302 64.0227 41.8419 64.7495 40.7146C65.4954 39.5694 66.5186 38.6837 67.8191 38.0574C69.1197 37.4133 70.5828 37.0912 72.2083 37.0912C73.7385 37.0912 75.1345 37.3864 76.3968 37.9769C77.6591 38.5495 78.6631 39.3994 79.409 40.5267C80.1549 41.654 80.5279 43.0228 80.5279 44.6332C80.5279 44.8122 80.5183 45.0179 80.4992 45.2506C80.4801 45.4832 80.461 45.6979 80.4418 45.8947H68.1346V43.2107H77.5443L75.4788 43.9622C75.4979 43.3001 75.364 42.7276 75.0771 42.2445C74.8094 41.7614 74.427 41.3856 73.9296 41.1172C73.4516 40.8488 72.8873 40.7146 72.237 40.7146C71.5869 40.7146 71.0131 40.8488 70.5158 41.1172C70.0377 41.3856 69.6648 41.7703 69.3969 42.2713C69.1292 42.7544 68.9953 43.327 68.9953 43.9891V44.7674C68.9953 45.4832 69.1484 46.1005 69.4543 46.6194C69.7795 47.1383 70.2385 47.5409 70.8313 47.8272C71.4243 48.0956 72.1319 48.2298 72.9542 48.2298C73.7193 48.2298 74.3696 48.1313 74.905 47.9346C75.4597 47.7198 76.0048 47.3978 76.5402 46.9683L79.409 49.7597C78.6631 50.5291 77.7451 51.1196 76.655 51.5311C75.5648 51.9248 74.2739 52.1216 72.7821 52.1216Z" fill="black"/>
<path d="M83.0411 51.88V31.9647H88.4918V51.88H83.0411ZM112.288 37.0912C113.493 37.0912 114.564 37.3238 115.501 37.789C116.457 38.2364 117.203 38.9342 117.739 39.8825C118.293 40.8308 118.571 42.0566 118.571 43.5596V51.88H113.12V44.3917C113.12 43.3538 112.909 42.6023 112.489 42.1371C112.068 41.654 111.494 41.4124 110.767 41.4124C110.251 41.4124 109.782 41.5287 109.362 41.7613C108.941 41.994 108.616 42.3518 108.386 42.8349C108.157 43.3001 108.042 43.9085 108.042 44.6601V51.88H102.591V44.3917C102.591 43.3538 102.381 42.6023 101.96 42.1371C101.559 41.654 100.985 41.4124 100.239 41.4124C99.7033 41.4124 99.2252 41.5287 98.8045 41.7613C98.4029 41.994 98.0776 42.3518 97.8291 42.8349C97.5996 43.3001 97.4848 43.9085 97.4848 44.6601V51.88H92.0341V37.3327H97.2266V41.3856L96.1939 40.2315C96.7676 39.1936 97.5517 38.4152 98.5463 37.8964C99.5407 37.3596 100.65 37.0912 101.874 37.0912C103.27 37.0912 104.494 37.4312 105.546 38.1111C106.617 38.7732 107.334 39.8109 107.698 41.2245L105.919 40.8756C106.474 39.6947 107.306 38.7732 108.415 38.1111C109.543 37.4312 110.834 37.0912 112.288 37.0912ZM122.011 51.88V37.3327H127.461V51.88H122.011ZM124.736 35.7223C123.742 35.7223 122.938 35.4628 122.326 34.944C121.714 34.4251 121.408 33.781 121.408 33.0115C121.408 32.242 121.714 31.5979 122.326 31.079C122.938 30.5602 123.742 30.3007 124.736 30.3007C125.731 30.3007 126.534 30.5511 127.146 31.0522C127.758 31.5353 128.064 32.1615 128.064 32.931C128.064 33.7362 127.758 34.4072 127.146 34.944C126.553 35.4628 125.75 35.7223 124.736 35.7223Z" fill="#EBFF00"/>
<path d="M91.9319 49.44L97.7999 47.61V49.745V51.8799H91.9319V49.44Z" fill="black"/>
<path d="M102.364 46.1802L108.232 44.3564V51.8798H102.364V46.1802Z" fill="black"/>
<path d="M112.796 43.0408L118.664 41.2539V51.8799H112.796V43.0408Z" fill="black"/>
<path d="M121.924 40.5025L127.792 38.8954V51.8798H121.924V40.5025Z" fill="black"/>
<path d="M82.8039 40.9L88.6719 48.83V50.66L86.7159 51.27L84.7599 51.88H82.8039V40.9Z" fill="black"/>
<path d="M88.672 50.66L88.6719 37.85V31.75H82.8039L82.804 42.12" stroke="black" stroke-width="0.5"/>
<path d="M97.148 48.22V37.24H91.932V51.88" stroke="black" stroke-width="0.5"/>
<path d="M102.364 47C102.364 45.3734 102.789 41.51 100.408 41.51C98.8432 41.51 98.0174 42.73 97.8 43.95V48.22" stroke="black" stroke-width="0.5"/>
<path d="M112.796 45.78C112.796 44.1534 112.932 41.51 110.84 41.51C108.884 41.51 108.449 43.34 108.232 44.56V45.17" stroke="black" stroke-width="0.5"/>
<path d="M128.118 32.97C128.118 33.7516 127.863 34.4349 127.385 34.9197C126.91 35.4005 126.187 35.715 125.184 35.715C123.145 35.715 121.598 34.4363 121.598 32.97C121.598 31.5037 123.145 30.225 125.184 30.225C126.187 30.225 126.91 30.5395 127.385 31.0203C127.863 31.505 128.118 32.1883 128.118 32.97Z" stroke="black" stroke-width="0.5"/>
<path d="M97.148 38.46C98.6694 37.24 102.755 35.654 106.928 39.07" stroke="black" stroke-width="0.5"/>
<path d="M106.928 39.0701C108.449 37.8501 116.056 34.1901 118.664 41.5101" stroke="black" stroke-width="0.5"/>
</svg>
