<svg width="1080" height="1080" viewBox="0 0 1080 1080" xmlns="http://www.w3.org/2000/svg"><rect width="1080" height="1080" fill="#042940"/><path d="M 0,1080 C 0,1080 0,180 0,180 C 50.33505154639177,171.1104565537555 100.67010309278353,162.22091310751105 140,166 C 179.32989690721647,169.77908689248895 207.65463917525773,186.22680412371133 257,181 C 306.3453608247423,175.77319587628867 376.71134020618564,148.87187039764362 421,142 C 465.28865979381436,135.12812960235638 483.5,148.28571428571428 524,138 C 564.5,127.71428571428572 627.2886597938144,93.9852724594993 673,120 C 718.7113402061856,146.0147275405007 747.3453608247422,231.77319587628864 797,236 C 846.6546391752578,240.22680412371136 917.3298969072165,162.9219440353461 968,140 C 1018.6701030927835,117.0780559646539 1049.3350515463917,148.53902798232696 1080,180 C 1080,180 1080,1080 1080,1080 Z" fill="#005c53" opacity="0.09999999999999999"/><path d="M 0,1080 C 0,1080 0,360 0,360 C 32.85069955817377,370.7032400589102 65.70139911634755,381.4064801178203 120,388 C 174.29860088365245,394.5935198821797 250.04510309278356,397.07731958762884 294,391 C 337.95489690721644,384.92268041237116 350.11818851251843,370.28424153166424 388,345 C 425.88181148748157,319.71575846833576 489.4821428571429,283.7857142857143 540,299 C 590.5178571428571,314.2142857142857 627.9532400589102,380.57290132547865 672,398 C 716.0467599410898,415.42709867452135 766.7048969072165,383.9226804123711 816,376 C 865.2951030927835,368.0773195876289 913.227172312224,383.73637702503686 957,385 C 1000.772827687776,386.26362297496314 1040.386413843888,373.13181148748157 1080,360 C 1080,360 1080,1080 1080,1080 Z" fill="#005c53" opacity="0.19999999999999998"/><path d="M 0,1080 C 0,1080 0,540 0,540 C 54.672680412371136,532.5180412371134 109.34536082474227,525.0360824742268 154,529 C 198.65463917525773,532.9639175257732 233.29123711340213,548.3737113402061 280,557 C 326.70876288659787,565.6262886597939 385.4896907216494,567.4690721649484 424,575 C 462.5103092783506,582.5309278350516 480.75,595.75 519,594 C 557.25,592.25 615.5103092783505,575.5309278350516 666,577 C 716.4896907216495,578.4690721649484 759.208762886598,598.1262886597939 810,576 C 860.791237113402,553.8737113402061 919.6546391752578,489.9639175257732 966,477 C 1012.3453608247422,464.0360824742268 1046.1726804123712,502.0180412371134 1080,540 C 1080,540 1080,1080 1080,1080 Z" fill="#005c53" opacity="0.3"/><path d="M 0,1080 C 0,1080 0,720 0,720 C 35.77743004418262,710.6406480117821 71.55486008836525,701.2812960235641 115,704 C 158.44513991163475,706.7187039764359 209.55798969072168,721.5154639175258 256,723 C 302.4420103092783,724.4845360824742 344.21318114874816,712.6568483063329 387,704 C 429.78681885125184,695.3431516936671 473.58928571428567,689.8571428571428 519,695 C 564.4107142857143,700.1428571428572 611.4296759941091,715.9145802650958 667,720 C 722.5703240058909,724.0854197349042 786.6920103092782,716.4845360824743 833,724 C 879.3079896907218,731.5154639175257 907.8022827687777,754.1472754050073 946,756 C 984.1977172312223,757.8527245949927 1032.098858615611,738.9263622974963 1080,720 C 1080,720 1080,1080 1080,1080 Z" fill="#005c53" opacity="0.39999999999999997"/><path d="M 0,1080 C 0,1080 0,900 0,900 C 53.70821060382916,928.8738954344624 107.41642120765832,957.7477908689249 147,950 C 186.58357879234168,942.2522091310751 212.0425257731959,897.882731958763 250,876 C 287.9574742268041,854.117268041237 338.4134756995581,854.7212812960234 383,850 C 427.5865243004419,845.2787187039766 466.30357142857144,835.232142857143 516,841 C 565.6964285714286,846.767857142857 626.3722385861561,868.3501472754048 677,893 C 727.6277614138439,917.6498527245952 768.2074742268043,945.3672680412374 810,942 C 851.7925257731957,938.6327319587626 894.7978645066274,904.1807805596466 940,892 C 985.2021354933726,879.8192194403534 1032.6010677466863,889.9096097201767 1080,900 C 1080,900 1080,1080 1080,1080 Z" fill="#005c53" opacity="0.49999999999999994"/></svg>